<mxfile host="65bd71144e">
    <diagram id="9dfmjIV4yGJPZ4xbE5Ki" name="Page-1">
        <mxGraphModel dx="1461" dy="1177" grid="1" gridSize="10" guides="1" tooltips="1" connect="1" arrows="1" fold="1" page="1" pageScale="1" pageWidth="10000" pageHeight="10000" math="0" shadow="0">
            <root>
                <mxCell id="0"/>
                <mxCell id="1" parent="0"/>
                <mxCell id="40" value="" style="rounded=0;whiteSpace=wrap;html=1;fillColor=none;dashed=1;dashPattern=8 8;strokeColor=#007FFF;strokeWidth=3;" parent="1" vertex="1">
                    <mxGeometry x="620" y="560" width="360" height="350" as="geometry"/>
                </mxCell>
                <mxCell id="2" value="LMPs" style="ellipse;whiteSpace=wrap;html=1;aspect=fixed;fontStyle=1;fillColor=#008a00;fontColor=#ffffff;strokeColor=#005700;" parent="1" vertex="1">
                    <mxGeometry x="1060" y="580" width="80" height="80" as="geometry"/>
                </mxCell>
                <mxCell id="4" value="EGRET&amp;nbsp;&lt;br&gt;Federate" style="rounded=0;whiteSpace=wrap;html=1;fillColor=#1ba1e2;fontColor=#ffffff;strokeColor=#006EAF;" parent="1" vertex="1">
                    <mxGeometry x="730" y="590" width="120" height="60" as="geometry"/>
                </mxCell>
                <mxCell id="18" value="" style="endArrow=classic;html=1;entryX=0;entryY=0.5;entryDx=0;entryDy=0;exitX=1;exitY=0.5;exitDx=0;exitDy=0;" parent="1" source="4" target="2" edge="1">
                    <mxGeometry width="50" height="50" relative="1" as="geometry">
                        <mxPoint x="720" y="750" as="sourcePoint"/>
                        <mxPoint x="770" y="700" as="targetPoint"/>
                    </mxGeometry>
                </mxCell>
                <mxCell id="19" value="RT LMPs for &lt;br&gt;all generators&lt;br&gt;modeled in miniWECC&lt;br&gt;for the simulated year&amp;nbsp;" style="edgeLabel;html=1;align=center;verticalAlign=middle;resizable=0;points=[];" parent="18" vertex="1" connectable="0">
                    <mxGeometry x="-0.1982" y="-3" relative="1" as="geometry">
                        <mxPoint x="18" y="-7" as="offset"/>
                    </mxGeometry>
                </mxCell>
                <mxCell id="20" value="Table of some kind that compares aggregated LMPs across scenarios&lt;br&gt;&lt;br&gt;(TODO: needs definition;&lt;br&gt;what are the rows and columns?)" style="shape=internalStorage;whiteSpace=wrap;html=1;backgroundOutline=1;fillColor=#e51400;fontColor=#ffffff;strokeColor=#B20000;" parent="1" vertex="1">
                    <mxGeometry x="1511.25" y="560" width="150" height="120" as="geometry"/>
                </mxCell>
                <mxCell id="21" value="" style="endArrow=classic;html=1;entryX=0;entryY=0.5;entryDx=0;entryDy=0;exitX=1;exitY=0.5;exitDx=0;exitDy=0;" parent="1" source="2" target="61" edge="1">
                    <mxGeometry width="50" height="50" relative="1" as="geometry">
                        <mxPoint x="1100" y="400" as="sourcePoint"/>
                        <mxPoint x="1310" y="400" as="targetPoint"/>
                    </mxGeometry>
                </mxCell>
                <mxCell id="23" value="Historical wind, solar, and hydro production data" style="shape=cylinder3;whiteSpace=wrap;html=1;boundedLbl=1;backgroundOutline=1;size=15;fillColor=#fa6800;fontColor=#000000;strokeColor=#C73500;" parent="1" vertex="1">
                    <mxGeometry x="590" y="190" width="80" height="110" as="geometry"/>
                </mxCell>
                <mxCell id="24" value="" style="endArrow=classic;html=1;exitX=0.5;exitY=1;exitDx=0;exitDy=0;exitPerimeter=0;entryX=0.5;entryY=0;entryDx=0;entryDy=0;" parent="1" source="23" target="26" edge="1">
                    <mxGeometry width="50" height="50" relative="1" as="geometry">
                        <mxPoint x="710.8" y="350.0000000000001" as="sourcePoint"/>
                        <mxPoint x="729.2" y="414.35" as="targetPoint"/>
                    </mxGeometry>
                </mxCell>
                <mxCell id="25" value="Hourly wind, solar, &lt;br&gt;and hydro&lt;br&gt;production data" style="edgeLabel;html=1;align=center;verticalAlign=middle;resizable=0;points=[];" parent="24" vertex="1" connectable="0">
                    <mxGeometry x="-0.1982" y="-3" relative="1" as="geometry">
                        <mxPoint x="3" y="6" as="offset"/>
                    </mxGeometry>
                </mxCell>
                <mxCell id="26" value="Interpolation to RT market interval" style="whiteSpace=wrap;html=1;aspect=fixed;" parent="1" vertex="1">
                    <mxGeometry x="690" y="400" width="70" height="70" as="geometry"/>
                </mxCell>
                <mxCell id="27" value="" style="endArrow=classic;html=1;exitX=0.5;exitY=1;exitDx=0;exitDy=0;entryX=0.25;entryY=0;entryDx=0;entryDy=0;" parent="1" source="26" target="4" edge="1">
                    <mxGeometry width="50" height="50" relative="1" as="geometry">
                        <mxPoint x="730" y="330" as="sourcePoint"/>
                        <mxPoint x="730" y="410" as="targetPoint"/>
                    </mxGeometry>
                </mxCell>
                <mxCell id="28" value="5 min.&lt;br&gt;wind, solar, and hydro&lt;br&gt;production data" style="edgeLabel;html=1;align=center;verticalAlign=middle;resizable=0;points=[];" parent="27" vertex="1" connectable="0">
                    <mxGeometry x="-0.1982" y="-3" relative="1" as="geometry">
                        <mxPoint x="3" y="6" as="offset"/>
                    </mxGeometry>
                </mxCell>
                <mxCell id="30" value="&lt;font style=&quot;font-size: 12px;&quot;&gt;Forecast generation algorithm&lt;br&gt;&lt;/font&gt;" style="rounded=0;whiteSpace=wrap;html=1;" parent="1" vertex="1">
                    <mxGeometry x="440" y="590" width="140" height="60" as="geometry"/>
                </mxCell>
                <mxCell id="31" value="" style="endArrow=classic;html=1;exitX=0.145;exitY=1;exitDx=0;exitDy=-4.35;exitPerimeter=0;entryX=0.5;entryY=0;entryDx=0;entryDy=0;" parent="1" source="23" target="30" edge="1">
                    <mxGeometry width="50" height="50" relative="1" as="geometry">
                        <mxPoint x="820" y="290" as="sourcePoint"/>
                        <mxPoint x="735" y="410" as="targetPoint"/>
                    </mxGeometry>
                </mxCell>
                <mxCell id="32" value="Hourly wind&lt;br&gt;production data" style="edgeLabel;html=1;align=center;verticalAlign=middle;resizable=0;points=[];" parent="31" vertex="1" connectable="0">
                    <mxGeometry x="-0.1982" y="-3" relative="1" as="geometry">
                        <mxPoint x="3" y="6" as="offset"/>
                    </mxGeometry>
                </mxCell>
                <mxCell id="33" value="T2 Controller&lt;br&gt;Federate and&lt;br&gt;Energy Storage model" style="rounded=0;whiteSpace=wrap;html=1;fillColor=#d80073;fontColor=#ffffff;strokeColor=#A50040;" parent="1" vertex="1">
                    <mxGeometry x="630" y="780" width="300" height="60" as="geometry"/>
                </mxCell>
                <mxCell id="34" value="" style="endArrow=classic;html=1;exitX=0.75;exitY=1;exitDx=0;exitDy=0;entryX=0;entryY=0.25;entryDx=0;entryDy=0;" parent="1" source="30" target="33" edge="1">
                    <mxGeometry width="50" height="50" relative="1" as="geometry">
                        <mxPoint x="611.5999999999999" y="305.6500000000001" as="sourcePoint"/>
                        <mxPoint x="540" y="640" as="targetPoint"/>
                    </mxGeometry>
                </mxCell>
                <mxCell id="35" value="Hourly wind &lt;br&gt;forecast for next&lt;br&gt;36 hours" style="edgeLabel;html=1;align=center;verticalAlign=middle;resizable=0;points=[];" parent="34" vertex="1" connectable="0">
                    <mxGeometry x="-0.1982" y="-3" relative="1" as="geometry">
                        <mxPoint x="-16" y="-9" as="offset"/>
                    </mxGeometry>
                </mxCell>
                <mxCell id="36" value="" style="endArrow=classic;html=1;exitX=0.25;exitY=0;exitDx=0;exitDy=0;entryX=0.25;entryY=1;entryDx=0;entryDy=0;" parent="1" source="33" target="4" edge="1">
                    <mxGeometry width="50" height="50" relative="1" as="geometry">
                        <mxPoint x="980" y="780" as="sourcePoint"/>
                        <mxPoint x="1095" y="895" as="targetPoint"/>
                    </mxGeometry>
                </mxCell>
                <mxCell id="37" value="DA and RT energy&lt;br&gt;&amp;nbsp;market bids&lt;br&gt;&lt;br&gt;Frequency (reserve) &lt;br&gt;market bids" style="edgeLabel;html=1;align=center;verticalAlign=middle;resizable=0;points=[];" parent="36" vertex="1" connectable="0">
                    <mxGeometry x="-0.1982" y="-3" relative="1" as="geometry">
                        <mxPoint x="-2" y="-20" as="offset"/>
                    </mxGeometry>
                </mxCell>
                <mxCell id="38" value="" style="endArrow=classic;html=1;exitX=0.75;exitY=1;exitDx=0;exitDy=0;entryX=0.75;entryY=0;entryDx=0;entryDy=0;" parent="1" source="4" target="33" edge="1">
                    <mxGeometry width="50" height="50" relative="1" as="geometry">
                        <mxPoint x="677.5" y="790" as="sourcePoint"/>
                        <mxPoint x="1050" y="780" as="targetPoint"/>
                    </mxGeometry>
                </mxCell>
                <mxCell id="39" value="Wind and&lt;br&gt;energy storage&lt;br&gt;RT energy market&lt;br&gt;dispatch" style="edgeLabel;html=1;align=center;verticalAlign=middle;resizable=0;points=[];" parent="38" vertex="1" connectable="0">
                    <mxGeometry x="-0.1982" y="-3" relative="1" as="geometry">
                        <mxPoint x="9" y="-3" as="offset"/>
                    </mxGeometry>
                </mxCell>
                <mxCell id="41" value="&lt;font size=&quot;1&quot; color=&quot;#3399ff&quot;&gt;&lt;b style=&quot;font-size: 16px;&quot;&gt;Co-Simulation&lt;/b&gt;&lt;/font&gt;" style="text;html=1;align=center;verticalAlign=middle;resizable=0;points=[];autosize=1;strokeColor=none;fillColor=none;" parent="1" vertex="1">
                    <mxGeometry x="725" y="880" width="130" height="30" as="geometry"/>
                </mxCell>
                <mxCell id="42" value="&lt;font style=&quot;font-size: 10px;&quot;&gt;miniWECC model&lt;br&gt;with 2032 generation set&lt;br&gt;and load profiles&lt;br&gt;&lt;/font&gt;" style="shape=process;whiteSpace=wrap;html=1;backgroundOutline=1;strokeWidth=1;fontSize=16;fillColor=#fa6800;fontColor=#000000;strokeColor=#C73500;" parent="1" vertex="1">
                    <mxGeometry x="920" y="210" width="140" height="60" as="geometry"/>
                </mxCell>
                <mxCell id="43" value="" style="endArrow=classic;html=1;exitX=0.5;exitY=1;exitDx=0;exitDy=0;entryX=0.5;entryY=0;entryDx=0;entryDy=0;" parent="1" source="42" target="45" edge="1">
                    <mxGeometry width="50" height="50" relative="1" as="geometry">
                        <mxPoint x="865" y="320" as="sourcePoint"/>
                        <mxPoint x="910" y="440" as="targetPoint"/>
                    </mxGeometry>
                </mxCell>
                <mxCell id="44" value="&lt;font style=&quot;font-size: 11px;&quot;&gt;2032 base case model&lt;/font&gt;" style="edgeLabel;html=1;align=center;verticalAlign=middle;resizable=0;points=[];" parent="43" vertex="1" connectable="0">
                    <mxGeometry x="-0.1982" y="-3" relative="1" as="geometry">
                        <mxPoint x="3" y="6" as="offset"/>
                    </mxGeometry>
                </mxCell>
                <mxCell id="45" value="&lt;font style=&quot;font-size: 11px;&quot;&gt;(For some scenarios, add OSW and energy storage)&lt;/font&gt;" style="rounded=0;whiteSpace=wrap;html=1;" parent="1" vertex="1">
                    <mxGeometry x="850" y="390" width="130" height="50" as="geometry"/>
                </mxCell>
                <mxCell id="49" value="" style="endArrow=classic;html=1;exitX=0.5;exitY=1;exitDx=0;exitDy=0;entryX=0.75;entryY=0;entryDx=0;entryDy=0;" parent="1" source="45" target="4" edge="1">
                    <mxGeometry width="50" height="50" relative="1" as="geometry">
                        <mxPoint x="735" y="480" as="sourcePoint"/>
                        <mxPoint x="770" y="600" as="targetPoint"/>
                    </mxGeometry>
                </mxCell>
                <mxCell id="50" value="5 min&lt;br&gt;wind, solar, and hydro&lt;br&gt;production data" style="edgeLabel;html=1;align=center;verticalAlign=middle;resizable=0;points=[];" parent="49" vertex="1" connectable="0">
                    <mxGeometry x="-0.1982" y="-3" relative="1" as="geometry">
                        <mxPoint x="3" y="6" as="offset"/>
                    </mxGeometry>
                </mxCell>
                <mxCell id="54" value="" style="endArrow=classic;html=1;exitX=1;exitY=0.25;exitDx=0;exitDy=0;entryX=0;entryY=0.5;entryDx=0;entryDy=0;" parent="1" source="4" target="56" edge="1">
                    <mxGeometry width="50" height="50" relative="1" as="geometry">
                        <mxPoint x="890" y="650" as="sourcePoint"/>
                        <mxPoint x="1070" y="390" as="targetPoint"/>
                    </mxGeometry>
                </mxCell>
                <mxCell id="55" value="5 min&amp;nbsp;&lt;br&gt;production data&lt;br&gt;by modeled&amp;nbsp;&lt;br&gt;generator" style="edgeLabel;html=1;align=center;verticalAlign=middle;resizable=0;points=[];" parent="54" vertex="1" connectable="0">
                    <mxGeometry x="-0.1982" y="-3" relative="1" as="geometry">
                        <mxPoint x="68" y="-41" as="offset"/>
                    </mxGeometry>
                </mxCell>
                <mxCell id="56" value="Production&lt;br&gt;Data" style="ellipse;whiteSpace=wrap;html=1;aspect=fixed;fontStyle=1;fillColor=#008a00;fontColor=#ffffff;strokeColor=#005700;" parent="1" vertex="1">
                    <mxGeometry x="1080" y="450" width="80" height="80" as="geometry"/>
                </mxCell>
                <mxCell id="57" value="&lt;font style=&quot;font-size: 10px;&quot;&gt;CO2 emissions rate by fuel and generator technology type&lt;br&gt;&lt;/font&gt;" style="shape=process;whiteSpace=wrap;html=1;backgroundOutline=1;strokeWidth=1;fontSize=16;fillColor=#fa6800;fontColor=#000000;strokeColor=#C73500;" parent="1" vertex="1">
                    <mxGeometry x="1300" y="330" width="160" height="60" as="geometry"/>
                </mxCell>
                <mxCell id="58" value="&lt;font style=&quot;font-size: 11px;&quot;&gt;&lt;span style=&quot;font-size: 11px;&quot;&gt;Emission calculation&lt;br&gt;&lt;/span&gt;for each aggregated&amp;nbsp;&lt;br&gt;generation&lt;br&gt;&lt;/font&gt;" style="rounded=0;whiteSpace=wrap;html=1;" parent="1" vertex="1">
                    <mxGeometry x="1230" y="450" width="140" height="50" as="geometry"/>
                </mxCell>
                <mxCell id="59" value="" style="endArrow=classic;html=1;exitX=1;exitY=0.5;exitDx=0;exitDy=0;" parent="1" source="56" target="58" edge="1">
                    <mxGeometry width="50" height="50" relative="1" as="geometry">
                        <mxPoint x="1150" y="630" as="sourcePoint"/>
                        <mxPoint x="1410" y="630" as="targetPoint"/>
                    </mxGeometry>
                </mxCell>
                <mxCell id="61" value="&lt;font style=&quot;&quot;&gt;&lt;font style=&quot;font-size: 11px;&quot;&gt;Temporal and/or spatial aggregation&lt;/font&gt;&lt;br&gt;&lt;/font&gt;" style="rounded=0;whiteSpace=wrap;html=1;" parent="1" vertex="1">
                    <mxGeometry x="1200" y="590" width="140" height="60" as="geometry"/>
                </mxCell>
                <mxCell id="63" value="" style="endArrow=classic;html=1;entryX=0;entryY=0.5;entryDx=0;entryDy=0;exitX=1;exitY=0.5;exitDx=0;exitDy=0;" parent="1" source="61" target="20" edge="1">
                    <mxGeometry width="50" height="50" relative="1" as="geometry">
                        <mxPoint x="1230" y="450" as="sourcePoint"/>
                        <mxPoint x="1440" y="450" as="targetPoint"/>
                    </mxGeometry>
                </mxCell>
                <mxCell id="64" value="Aggregated&amp;nbsp;&lt;br&gt;LMPs" style="edgeLabel;html=1;align=center;verticalAlign=middle;resizable=0;points=[];" parent="63" vertex="1" connectable="0">
                    <mxGeometry x="-0.1982" y="-3" relative="1" as="geometry">
                        <mxPoint x="18" y="-7" as="offset"/>
                    </mxGeometry>
                </mxCell>
                <mxCell id="66" value="" style="endArrow=classic;html=1;entryX=0.5;entryY=0;entryDx=0;entryDy=0;exitX=0.5;exitY=1;exitDx=0;exitDy=0;" parent="1" source="57" target="58" edge="1">
                    <mxGeometry width="50" height="50" relative="1" as="geometry">
                        <mxPoint x="1310" y="380" as="sourcePoint"/>
                        <mxPoint x="1220" y="780" as="targetPoint"/>
                    </mxGeometry>
                </mxCell>
                <mxCell id="67" value="Table of some kind that compares emissions across scenarios&lt;br&gt;&lt;br&gt;(TODO: needs definition;&lt;br&gt;what are the rows and columns?)" style="shape=internalStorage;whiteSpace=wrap;html=1;backgroundOutline=1;fillColor=#e51400;fontColor=#ffffff;strokeColor=#B20000;" parent="1" vertex="1">
                    <mxGeometry x="1511.25" y="420" width="150" height="120" as="geometry"/>
                </mxCell>
                <mxCell id="68" value="" style="endArrow=classic;html=1;entryX=0;entryY=0.5;entryDx=0;entryDy=0;exitX=1;exitY=0.5;exitDx=0;exitDy=0;" parent="1" source="58" target="67" edge="1">
                    <mxGeometry width="50" height="50" relative="1" as="geometry">
                        <mxPoint x="1350" y="630" as="sourcePoint"/>
                        <mxPoint x="1510" y="630" as="targetPoint"/>
                    </mxGeometry>
                </mxCell>
                <mxCell id="69" value="Total emissions" style="edgeLabel;html=1;align=center;verticalAlign=middle;resizable=0;points=[];" parent="68" vertex="1" connectable="0">
                    <mxGeometry x="-0.1982" y="-3" relative="1" as="geometry">
                        <mxPoint x="18" y="-7" as="offset"/>
                    </mxGeometry>
                </mxCell>
                <mxCell id="70" value="&lt;font style=&quot;&quot;&gt;&lt;span style=&quot;font-size: 11px;&quot;&gt;Community impact calculations&lt;br&gt;&lt;/span&gt;&lt;br&gt;(TODO: needs definition)&lt;br&gt;&lt;/font&gt;" style="rounded=0;whiteSpace=wrap;html=1;fillColor=#e51400;fontColor=#ffffff;strokeColor=#B20000;" parent="1" vertex="1">
                    <mxGeometry x="1420" y="180" width="85" height="120" as="geometry"/>
                </mxCell>
                <mxCell id="71" value="" style="endArrow=classic;html=1;exitX=0.5;exitY=0;exitDx=0;exitDy=0;entryX=0.5;entryY=1;entryDx=0;entryDy=0;" parent="1" source="56" target="75" edge="1">
                    <mxGeometry width="50" height="50" relative="1" as="geometry">
                        <mxPoint x="1170" y="780" as="sourcePoint"/>
                        <mxPoint x="1220" y="780" as="targetPoint"/>
                    </mxGeometry>
                </mxCell>
                <mxCell id="75" value="&lt;font style=&quot;font-size: 11px;&quot;&gt;&lt;span style=&quot;font-size: 11px;&quot;&gt;Generator&lt;br&gt;&lt;/span&gt;&lt;font style=&quot;font-size: 11px;&quot;&gt;disaggregation&lt;br&gt;&lt;/font&gt;and production&amp;nbsp;&lt;br&gt;allocation&lt;br&gt;&lt;/font&gt;" style="rounded=0;whiteSpace=wrap;html=1;" parent="1" vertex="1">
                    <mxGeometry x="1170" y="202.5" width="110" height="75" as="geometry"/>
                </mxCell>
                <mxCell id="78" value="" style="endArrow=classic;html=1;exitX=1;exitY=0.5;exitDx=0;exitDy=0;entryX=0;entryY=0.5;entryDx=0;entryDy=0;" parent="1" source="42" target="75" edge="1">
                    <mxGeometry width="50" height="50" relative="1" as="geometry">
                        <mxPoint x="1000" y="280" as="sourcePoint"/>
                        <mxPoint x="925" y="400" as="targetPoint"/>
                    </mxGeometry>
                </mxCell>
                <mxCell id="79" value="&lt;font style=&quot;font-size: 11px;&quot;&gt;Aggregated &lt;br&gt;generator&lt;br&gt;location &lt;br&gt;(model bus)&lt;br&gt;&lt;/font&gt;" style="edgeLabel;html=1;align=center;verticalAlign=middle;resizable=0;points=[];" parent="78" vertex="1" connectable="0">
                    <mxGeometry x="-0.1982" y="-3" relative="1" as="geometry">
                        <mxPoint x="3" y="6" as="offset"/>
                    </mxGeometry>
                </mxCell>
                <mxCell id="83" value="" style="endArrow=classic;html=1;exitX=1;exitY=0.5;exitDx=0;exitDy=0;entryX=0;entryY=0.5;entryDx=0;entryDy=0;" parent="1" source="75" target="70" edge="1">
                    <mxGeometry width="50" height="50" relative="1" as="geometry">
                        <mxPoint x="1300" y="150" as="sourcePoint"/>
                        <mxPoint x="1410" y="150" as="targetPoint"/>
                    </mxGeometry>
                </mxCell>
                <mxCell id="84" value="&lt;font style=&quot;font-size: 11px;&quot;&gt;Generator&amp;nbsp;&lt;br&gt;production&amp;nbsp;&lt;br&gt;data for each&lt;br&gt;real-world&amp;nbsp;&lt;br&gt;generator&lt;br&gt;&lt;/font&gt;" style="edgeLabel;html=1;align=center;verticalAlign=middle;resizable=0;points=[];" parent="83" vertex="1" connectable="0">
                    <mxGeometry x="-0.1982" y="-3" relative="1" as="geometry">
                        <mxPoint x="3" y="6" as="offset"/>
                    </mxGeometry>
                </mxCell>
                <mxCell id="85" value="" style="endArrow=classic;html=1;entryX=0.5;entryY=1;entryDx=0;entryDy=0;exitX=0.5;exitY=0;exitDx=0;exitDy=0;" parent="1" source="57" target="70" edge="1">
                    <mxGeometry width="50" height="50" relative="1" as="geometry">
                        <mxPoint x="1650" y="320" as="sourcePoint"/>
                        <mxPoint x="1570" y="390" as="targetPoint"/>
                    </mxGeometry>
                </mxCell>
                <mxCell id="86" value="&lt;font style=&quot;font-size: 10px;&quot;&gt;Disadvantaged community location&lt;br&gt;&lt;/font&gt;" style="shape=process;whiteSpace=wrap;html=1;backgroundOutline=1;strokeWidth=1;fontSize=16;fillColor=#fa6800;fontColor=#000000;strokeColor=#C73500;" parent="1" vertex="1">
                    <mxGeometry x="1413.75" y="80" width="97.5" height="60" as="geometry"/>
                </mxCell>
                <mxCell id="87" value="" style="endArrow=classic;html=1;exitX=0.5;exitY=1;exitDx=0;exitDy=0;entryX=0.5;entryY=0;entryDx=0;entryDy=0;" parent="1" source="86" target="70" edge="1">
                    <mxGeometry width="50" height="50" relative="1" as="geometry">
                        <mxPoint x="1390" y="340" as="sourcePoint"/>
                        <mxPoint x="1540" y="180" as="targetPoint"/>
                    </mxGeometry>
                </mxCell>
                <mxCell id="88" value="Table of some kind that compares community impact across scenarios&lt;br&gt;&lt;br&gt;(TODO: needs definition;&lt;br&gt;what are the rows and columns?)" style="shape=internalStorage;whiteSpace=wrap;html=1;backgroundOutline=1;fillColor=#e51400;fontColor=#ffffff;strokeColor=#B20000;" parent="1" vertex="1">
                    <mxGeometry x="1620" y="185" width="140" height="120" as="geometry"/>
                </mxCell>
                <mxCell id="89" value="" style="endArrow=classic;html=1;exitX=1;exitY=0.5;exitDx=0;exitDy=0;" parent="1" source="70" target="88" edge="1">
                    <mxGeometry width="50" height="50" relative="1" as="geometry">
                        <mxPoint x="1550" y="111.25" as="sourcePoint"/>
                        <mxPoint x="1690" y="108.75" as="targetPoint"/>
                    </mxGeometry>
                </mxCell>
                <mxCell id="90" value="&lt;font style=&quot;font-size: 11px;&quot;&gt;Community&lt;br&gt;impact due to&lt;br&gt;emissions&lt;br&gt;&lt;/font&gt;" style="edgeLabel;html=1;align=center;verticalAlign=middle;resizable=0;points=[];" parent="89" vertex="1" connectable="0">
                    <mxGeometry x="-0.1982" y="-3" relative="1" as="geometry">
                        <mxPoint x="3" y="6" as="offset"/>
                    </mxGeometry>
                </mxCell>
                <mxCell id="91" value="" style="endArrow=classic;html=1;exitX=1;exitY=0.5;exitDx=0;exitDy=0;entryX=0;entryY=0.5;entryDx=0;entryDy=0;" edge="1" parent="1" source="30" target="4">
                    <mxGeometry width="50" height="50" relative="1" as="geometry">
                        <mxPoint x="555" y="660" as="sourcePoint"/>
                        <mxPoint x="640" y="805" as="targetPoint"/>
                    </mxGeometry>
                </mxCell>
                <mxCell id="92" value="Hourly wind, solar,&lt;br&gt;load (?)&lt;br&gt;forecast for next&lt;br&gt;36 hours" style="edgeLabel;html=1;align=center;verticalAlign=middle;resizable=0;points=[];" vertex="1" connectable="0" parent="91">
                    <mxGeometry x="-0.1982" y="-3" relative="1" as="geometry">
                        <mxPoint y="-9" as="offset"/>
                    </mxGeometry>
                </mxCell>
            </root>
        </mxGraphModel>
    </diagram>
</mxfile>